<?xml version="1.0" encoding="iso-8859-1"?>
<!-- Uploaded to: SVG Repo, www.svgrepo.com, Generator: SVG Repo Mixer Tools -->
<svg height="800px" width="800px" version="1.1" id="Layer_1" xmlns="http://www.w3.org/2000/svg" xmlns:xlink="http://www.w3.org/1999/xlink" 
	 viewBox="0 0 512 512" xml:space="preserve">
<path style="fill:#C13421;" d="M512,145.335c0,67.918-54.816,122.976-122.435,122.976s-122.435-55.058-122.435-122.976
	S321.947,22.359,389.565,22.359S512,77.417,512,145.335z"/>
<path style="fill:#FF4328;" d="M486.224,145.335c0,53.619-43.276,97.086-96.659,97.086s-96.659-43.467-96.659-97.086
	s43.275-97.086,96.659-97.086S486.224,91.716,486.224,145.335z"/>
<path style="fill:#5B5B5B;" d="M247.809,347.513c-4.218,2.54-9.688,1.165-12.217-3.07l-30.027-50.29
	c-0.021-0.036-0.042-0.071-0.062-0.107c-7.473-12.917-24.34-17.792-37.599-10.87c-0.357,0.186-0.692,0.367-1.021,0.557
	c-6.52,3.755-11.178,9.843-13.126,17.145c-1.931,7.238-0.953,14.765,2.754,21.2l29.997,50.239c2.529,4.236,1.161,9.729-3.058,12.27
	c-1.434,0.864-3.013,1.274-4.57,1.274c-3.026,0-5.976-1.549-7.645-4.345l-30.03-50.296c-0.021-0.035-0.042-0.07-0.062-0.106
	c-6.131-10.594-7.759-22.977-4.587-34.867c2.399-8.99,7.314-16.851,14.143-22.807L1.195,13.418C-1.264,9.14,0.195,3.67,4.452,1.2
	c4.261-2.47,9.705-1.005,12.164,3.272l149.525,260.058c20.494-7.048,43.519,1.156,54.727,20.473l29.997,50.239
	C253.394,339.48,252.027,344.974,247.809,347.513z M188.535,303.476c-2.53-4.236-7.999-5.611-12.216-3.07
	c-4.218,2.541-5.586,8.034-3.058,12.27l30.03,50.296c1.67,2.796,4.619,4.345,7.646,4.345c1.558,0,3.137-0.412,4.57-1.274
	c4.218-2.54,5.586-8.034,3.058-12.27L188.535,303.476z"/>
<path style="fill:#CAEEC5;" d="M222.943,438.727C100.321,438.727,0,338.634,0,216.297v-74.141h445.891v74.141
	C445.891,338.634,345.564,438.727,222.943,438.727L222.943,438.727L222.943,438.727z"/>
<path style="fill:#7E9332;" d="M378.435,340.978c0,15.988-3.949,31.043-10.893,44.265c-28.427,24.273-62.987,41.569-100.955,49.165
	c-14.158-2.625-27.215-8.403-38.412-16.6c-12.695,9.294-27.774,15.501-44.148,17.499C95.539,419.601,24.685,351.353,5.289,264.346
	c15.668-11.557,35-18.395,55.928-18.395c18.424,0,35.605,5.308,50.145,14.457c1.227-51.41,43.071-92.714,94.551-92.714
	c46.996,0,85.97,34.424,93.338,79.534C344.162,254.628,378.435,293.774,378.435,340.978z"/>
<path style="fill:#9E9D9D;" d="M449.453,503.057c0,4.94-3.987,8.943-8.904,8.943H11.131c-4.917,0-8.904-4.005-8.904-8.943
	c0-4.939,3.987-8.943,8.904-8.943h429.418C445.466,494.112,449.453,498.117,449.453,503.057z"/>
<path style="fill:#97BAA8;" d="M412.5,142.156h33.391v74.141c0,122.337-100.326,222.431-222.948,222.431S0,338.634,0,216.297
	v-74.141h33.391v74.141c0,104.155,85.032,188.891,189.551,188.891c104.521,0,189.557-84.736,189.557-188.891L412.5,142.156
	L412.5,142.156z"/>
<path style="fill:#D1EE88;" d="M205.268,217.264c1.658,1.666,2.616,3.969,2.616,6.328c0,2.359-0.957,4.661-2.616,6.328
	c-1.658,1.666-3.951,2.616-6.289,2.616c-2.349,0-4.641-0.951-6.3-2.616c-1.658-1.666-2.605-3.969-2.605-6.328
	c0-2.359,0.946-4.663,2.605-6.328c1.658-1.666,3.951-2.616,6.3-2.616C201.316,214.648,203.609,215.598,205.268,217.264z
	 M78.749,278.115h-2.126c-4.917,0-8.904,4.005-8.904,8.943c0,4.939,3.987,8.943,8.904,8.943h2.126c4.917,0,8.904-4.005,8.904-8.943
	C87.653,282.12,83.666,278.115,78.749,278.115z M269.895,266.12h-2.126c-4.917,0-8.904,4.005-8.904,8.943
	c0,4.94,3.987,8.943,8.904,8.943h2.126c4.917,0,8.904-4.005,8.904-8.943S274.814,266.12,269.895,266.12z M345.044,306.958h-2.126
	c-4.917,0-8.904,4.005-8.904,8.943c0,4.939,3.987,8.943,8.904,8.943h2.126c4.917,0,8.904-4.005,8.904-8.943
	C353.948,310.962,349.961,306.958,345.044,306.958z M287.333,348.803h-2.126c-4.917,0-8.904,4.005-8.904,8.943
	s3.987,8.943,8.904,8.943h2.126c4.917,0,8.904-4.005,8.904-8.943S292.251,348.803,287.333,348.803z"/>
<path style="fill:#7A1700;" d="M401.118,120.74c0,4.94-3.987,8.943-8.904,8.943h-2.533c-4.917,0-8.904-4.005-8.904-8.943
	c0-4.94,3.987-8.943,8.904-8.943h2.533C397.131,111.796,401.118,115.8,401.118,120.74z M390.947,87.69
	c4.917,0,8.904-4.005,8.904-8.943v-2.995c0-4.94-3.987-8.943-8.904-8.943s-8.904,4.005-8.904,8.943v2.995
	C382.042,83.687,386.028,87.69,390.947,87.69z M350.161,88.858c-3.489-3.482-9.127-3.465-12.593,0.039
	c-3.466,3.504-3.449,9.166,0.039,12.649l2.124,2.119c1.737,1.734,4.007,2.6,6.276,2.6c2.288,0,4.576-0.88,6.315-2.639
	c3.466-3.504,3.449-9.166-0.039-12.649L350.161,88.858z M444.33,88.897c-3.466-3.505-9.104-3.524-12.593-0.043l-2.124,2.118
	c-3.489,3.48-3.508,9.144-0.043,12.649c1.741,1.76,4.029,2.641,6.318,2.641c2.268,0,4.538-0.866,6.275-2.598l2.124-2.118
	C447.776,98.065,447.795,92.402,444.33,88.897z"/>
<path style="fill:#97BAA8;" d="M247.809,347.513c-4.218,2.54-9.688,1.165-12.217-3.07l-30.027-50.29
	c-0.021-0.036-0.042-0.071-0.062-0.107c-7.473-12.917-24.34-17.792-37.599-10.87c-0.357,0.186-0.692,0.367-1.021,0.557
	c-6.52,3.755-11.178,9.843-13.126,17.145c-1.931,7.238-0.953,14.765,2.754,21.2l29.997,50.239c2.529,4.236,1.161,9.729-3.058,12.27
	c-1.434,0.864-3.013,1.274-4.57,1.274c-3.026,0-5.976-1.549-7.645-4.345l-30.03-50.296c-0.021-0.035-0.042-0.07-0.062-0.106
	c-6.131-10.594-7.759-22.977-4.587-34.867c2.399-8.99,7.314-16.851,14.143-22.807L75.215,142.156H95.78l70.361,122.375
	c20.494-7.048,43.519,1.156,54.727,20.473l29.997,50.239C253.394,339.48,252.027,344.974,247.809,347.513z M188.535,303.476
	c-2.53-4.236-7.999-5.611-12.216-3.07c-4.218,2.541-5.586,8.034-3.058,12.27l30.03,50.296c1.67,2.796,4.619,4.345,7.646,4.345
	c1.558,0,3.137-0.412,4.57-1.274c4.218-2.54,5.586-8.034,3.058-12.27L188.535,303.476z"/>
</svg>