
<svg xmlns="http://www.w3.org/2000/svg" viewBox="0 0 100 100">
  <path d="M50 20 C40 20 35 35 35 50 C35 70 50 90 50 90 C50 90 65 70 65 50 C65 35 60 20 50 20 Z" fill="#ff9800"/>
  <path d="M50 15 L50 5" stroke="#4caf50" stroke-width="6" stroke-linecap="round"/>
</svg>

<!DOCTYPE svg PUBLIC "-//W3C//DTD SVG 1.1//EN" "http://www.w3.org/Graphics/SVG/1.1/DTD/svg11.dtd">

<!-- Uploaded to: SVG Repo, www.svgrepo.com, Transformed by: SVG Repo Mixer Tools -->
<svg width="800px" height="800px" viewBox="0 0 150 150" id="ART" xmlns="http://www.w3.org/2000/svg" fill="#000000">

<g id="SVGRepo_bgCarrier" stroke-width="0"/>

<g id="SVGRepo_tracerCarrier" stroke-linecap="round" stroke-linejoin="round"/>

<g id="SVGRepo_iconCarrier">

<defs>

<style>.cls-1{fill:none;stroke-linecap:round;stroke-linejoin:round;}.cls-1,.cls-2,.cls-4{stroke:#6ad2bd;stroke-width:4px;}.cls-2{fill:#ffa200;}.cls-2,.cls-4{stroke-miterlimit:10;}.cls-3{fill:#ffffff;}.cls-4{fill:#49af20;}</style>

</defs>

<title/>

<path class="cls-1" d="M77.81,50.35S84.1,20.61,71.77,9"/>

<circle class="cls-2" cx="71.77" cy="94.09" r="50.79"/>

<path class="cls-3" d="M50.76,84.82A12.69,12.69,0,1,1,63.45,72.13,12.7,12.7,0,0,1,50.76,84.82Z"/>

<path class="cls-4" d="M81.58,30c-2.23-18.52,26.61-32.34,46-20.54C110.36,24.32,107.31,43.42,81.58,30Z" data-name="&lt;Path&gt;" id="_Path_"/>

</g>

</svg>

