<svg xmlns="http://www.w3.org/2000/svg" viewBox="0 0 100 100">
  <path d="M50 10 C20 20 20 60 50 90 C80 60 80 20 50 10 Z" fill="#66bb6a"/>
</svg>


<?xml version="1.0" encoding="iso-8859-1"?>
<!-- Uploaded to: SVG Repo, www.svgrepo.com, Generator: SVG Repo Mixer Tools -->
<svg height="800px" width="800px" version="1.1" id="Layer_1" xmlns="http://www.w3.org/2000/svg" xmlns:xlink="http://www.w3.org/1999/xlink" 
	 viewBox="0 0 512.001 512.001" xml:space="preserve">
<path style="fill:#F7F4A3;" d="M266.248,201.173c-64.342-35.628-140.665-40.232-199.184-12.013
	c-9.662,4.661-15.334,14.905-14.157,25.566c7.134,64.575,51.537,126.823,115.88,162.452c64.342,35.63,140.665,40.232,199.185,12.014
	c2.48-1.197,4.697-2.76,6.603-4.604c5.52-5.342,8.431-13.038,7.555-20.963C374.994,299.05,330.59,236.802,266.248,201.173z"/>
<path style="fill:#A2CE86;" d="M382.128,363.625c-7.134-64.575-51.537-126.823-115.88-162.452
	c-64.342-35.628-140.665-40.232-199.184-12.013c-4.934,2.38-8.818,6.221-11.292,10.825c44.711,24.508,196.105,107.54,323.66,178.042
	C381.676,373.692,382.689,368.711,382.128,363.625z"/>
<path style="fill:#F7F4A3;" d="M458.935,179.451c-3.704-73.455-40.082-140.707-94.938-175.515
	c-9.059-5.747-20.753-5.156-29.188,1.471c-51.079,40.146-80.51,110.717-76.806,184.173c3.703,73.455,40.081,140.709,94.938,175.515
	c2.325,1.475,4.823,2.533,7.395,3.178c7.451,1.869,15.523,0.278,21.792-4.648C433.206,323.479,462.638,252.908,458.935,179.451z"/>
<path style="fill:#A2CE86;" d="M382.128,363.625c51.079-40.146,80.51-110.717,76.806-184.174
	c-3.704-73.455-40.082-140.707-94.938-175.515c-4.626-2.935-9.939-4.206-15.154-3.875c2.786,50.911,12.18,223.324,19.633,368.875
	C373.339,368.556,378.106,366.786,382.128,363.625z"/>
<path style="fill:#2A5637;" d="M363.561,389.45c-0.269,0-0.539-0.007-0.811-0.02c-9.273-0.442-16.433-8.315-15.993-17.588
	c0.37-7.766,0.191-78.549-0.019-124.453c-0.043-9.285,7.449-16.555,16.732-16.555c0.026,0,0.053,0,0.078,0
	c9.248,0,16.765,7.144,16.808,16.402c0.054,11.778,0.511,115.231-0.019,126.369C379.91,382.605,372.477,389.45,363.561,389.45z"/>
<path style="fill:#4E7F4B;" d="M425.737,512.001c-9.283,0-16.81-7.526-16.81-16.81v-27.019c0-34.666-20.483-66.131-52.184-80.162
	c-0.363-0.161-0.722-0.335-1.072-0.521l-102.038-54.11c-8.202-4.349-11.325-14.523-6.976-22.725
	c4.349-8.202,14.525-11.325,22.725-6.976l101.531,53.841c43.538,19.533,71.631,62.896,71.631,110.652v27.019
	C442.547,504.476,435.021,512.001,425.737,512.001z"/>
</svg>


